<?xml version="1.0" encoding="UTF-8"?>
<!DOCTYPE svg PUBLIC "-//W3C//DTD SVG 1.1//EN" "http://www.w3.org/Graphics/SVG/1.1/DTD/svg11.dtd">
<svg xmlns="http://www.w3.org/2000/svg" version="1.1" width="225px" height="225px" style="shape-rendering:geometricPrecision; text-rendering:geometricPrecision; image-rendering:optimizeQuality; fill-rule:evenodd; clip-rule:evenodd" xmlns:xlink="http://www.w3.org/1999/xlink">
<g><path style="opacity:1" fill="#fefefe" d="M -0.5,-0.5 C 74.5,-0.5 149.5,-0.5 224.5,-0.5C 224.5,74.5 224.5,149.5 224.5,224.5C 149.5,224.5 74.5,224.5 -0.5,224.5C -0.5,149.5 -0.5,74.5 -0.5,-0.5 Z"/></g>
<g><path style="opacity:1" fill="#040404" d="M 68.5,140.5 C 68.56,141.043 68.8933,141.376 69.5,141.5C 70.4999,107.507 70.8332,73.5065 70.5,39.5C 71.023,37.2921 72.3563,35.7921 74.5,35C 105.88,27.8206 137.213,20.654 168.5,13.5C 171.688,13.8561 173.855,15.5228 175,18.5C 175.977,69.5373 175.644,120.537 174,171.5C 168.494,194.693 153.994,204.86 130.5,202C 116.41,195.662 108.244,184.829 106,169.5C 103.024,152.308 107.858,137.808 120.5,126C 134.357,116.978 147.857,117.478 161,127.5C 161.5,111.17 161.667,94.8367 161.5,78.5C 135.573,84.2 109.74,90.2 84,96.5C 83.6667,125.5 83.3333,154.5 83,183.5C 79.4695,203.366 67.8028,214.699 48,217.5C 32.8757,215.763 22.5424,207.763 17,193.5C 9.95903,172.347 14.459,154.181 30.5,139C 43.5743,131.315 56.241,131.815 68.5,140.5 Z"/></g>
<g><path style="opacity:1" fill="#fbfbfb" d="M 85.5,81.5 C 84.5052,70.3456 84.1719,59.0123 84.5,47.5C 109.876,40.7412 135.542,34.7412 161.5,29.5C 161.5,41.1667 161.5,52.8333 161.5,64.5C 136.178,70.3849 110.845,76.0516 85.5,81.5 Z"/></g>
<g><path style="opacity:1" fill="#747474" d="M 70.5,39.5 C 70.8332,73.5065 70.4999,107.507 69.5,141.5C 68.8933,141.376 68.56,141.043 68.5,140.5C 69.1667,106.833 69.8333,73.1667 70.5,39.5 Z"/></g>
<g><path style="opacity:1" fill="#bdbdbd" d="M 84.5,47.5 C 84.1719,59.0123 84.5052,70.3456 85.5,81.5C 85.44,82.0431 85.1067,82.3764 84.5,82.5C 83.1757,70.6734 83.1757,59.0067 84.5,47.5 Z"/></g>
<g><path style="opacity:1" fill="#fafafa" d="M 137.5,132.5 C 149.096,133.381 156.596,139.381 160,150.5C 163.769,164.259 160.603,176.093 150.5,186C 136.48,192.25 126.647,188.084 121,173.5C 115.109,154.968 120.609,141.301 137.5,132.5 Z"/></g>
<g><path style="opacity:1" fill="#fbfbfb" d="M 43.5,147.5 C 57.1891,146.671 65.6891,153.004 69,166.5C 71.1129,177.389 69.1129,187.389 63,196.5C 52.3561,206.282 42.3561,205.615 33,194.5C 25.1776,180.362 25.8443,166.695 35,153.5C 37.6713,151.098 40.5046,149.098 43.5,147.5 Z"/></g>
</svg>
