<?xml version="1.0" standalone="yes"?>
<svg xmlns="http://www.w3.org/2000/svg" width="225" height="225">
<path style="fill:#f7f7f7; stroke:none;" d="M0 0L0 225L225 225L225 0L0 0z"/>
<path style="fill:#a4a4a4; stroke:none;" d="M22 33L22 34L203 34L185 33L149 33L22 33M19 34L20 35L19 34z"/>
<path style="fill:#4d4d4d; stroke:none;" d="M20 34L21 35L20 34z"/>
<path style="fill:#010101; stroke:none;" d="M21.0586 34.7423C13.2057 38.0282 17 61.7519 17 69L17 157C17 164.286 13.6753 182.895 18.6034 188.566C21.4704 191.866 27.1122 191 31 191L62 191L162 191C173.675 191 193.158 194.77 203.941 190.258C211.794 186.972 208 163.248 208 156L208 68C208 60.714 211.325 42.1046 206.397 36.4336C203.53 33.1344 197.888 34.0002 194 34L163 34L63 34C51.3248 34 31.8422 30.23 21.0586 34.7423z"/>
<path style="fill:#4d4d4d; stroke:none;" d="M204 34L205 35L204 34z"/>
<path style="fill:#a4a4a4; stroke:none;" d="M205 34L206 35L205 34z"/>
<path style="fill:#737373; stroke:none;" d="M18 35L19 36L18 35M206 35L207 36L206 35z"/>
<path style="fill:#a4a4a4; stroke:none;" d="M17 36L18 37L17 36M207 36L208 37L207 36M16.3333 38.6667L16.6667 39.3333L16.3333 38.6667M208.333 38.6667L208.667 39.3333L208.333 38.6667z"/>
<path style="fill:#737373; stroke:none;" d="M16 40L16 185L17 185L17 84C17 71.5323 20.8071 51.4559 16 40M208 40L208 185L209 185L209 84C209 71.5323 212.807 51.4559 208 40z"/>
<path style="fill:#a4a4a4; stroke:none;" d="M26 57L26 58L199 58L182 57L147 57L26 57z"/>
<path style="fill:#f7f7f7; stroke:none;" d="M26 58L26 181L199 181L199 58L26 58z"/>
<path style="fill:#a4a4a4; stroke:none;" d="M124 82L124 83L131 83L124 82z"/>
<path style="fill:#010101; stroke:none;" d="M108 151C115.625 150.392 115.587 141.159 117.127 135C121.533 117.376 126.329 99.7939 130 82C122.414 82.6049 122.493 91.868 120.884 98C116.294 115.5 111.658 133.279 108 151z"/>
<path style="fill:#4d4d4d; stroke:none;" d="M124 83L125 84L124 83M129 84L130 85L129 84z"/>
<path style="fill:#737373; stroke:none;" d="M129 85L130 86L129 85z"/>
<path style="fill:#a4a4a4; stroke:none;" d="M123 86L124 87L123 86M129 86L130 87L129 86z"/>
<path style="fill:#4d4d4d; stroke:none;" d="M123 87L124 88L123 87M128 88L129 89L128 88z"/>
<path style="fill:#737373; stroke:none;" d="M128 89L129 90L128 89z"/>
<path style="fill:#a4a4a4; stroke:none;" d="M122 90L123 91L122 90M128 90L129 91L128 90z"/>
<path style="fill:#4d4d4d; stroke:none;" d="M122.333 91.6667L122.667 92.3333L122.333 91.6667z"/>
<path style="fill:#737373; stroke:none;" d="M127 93L128 94L127 93z"/>
<path style="fill:#4d4d4d; stroke:none;" d="M90 94L91 95L90 94z"/>
<path style="fill:#737373; stroke:none;" d="M91 94L91 102L92 102L91 94z"/>
<path style="fill:#a4a4a4; stroke:none;" d="M121 94L122 95L121 94M127 94L128 95L127 94z"/>
<path style="fill:#010101; stroke:none;" d="M135 94C135.046 106.946 155.457 111.675 166 116L166 117C155.666 121.302 135.044 126.431 135 139C146.949 134.032 173.948 126.624 174 112L135 94z"/>
<path style="fill:#737373; stroke:none;" d="M136 94L137 95L136 94z"/>
<path style="fill:#a4a4a4; stroke:none;" d="M87 95L88 96L87 95z"/>
<path style="fill:#4d4d4d; stroke:none;" d="M88 95L89 96L88 95z"/>
<path style="fill:#010101; stroke:none;" d="M91 139C90.9563 126.65 70.6445 120.066 60 117L60 116C69.8329 113.167 90.8643 106.449 91 95C80.4701 98.0102 70.8967 104.05 61 108.626C56.4829 110.714 51.5724 112.758 53.3187 118.788C54.4509 122.697 59.7423 123.813 63 125.309C72.4339 129.641 81.4153 135.01 91 139z"/>
<path style="fill:#737373; stroke:none;" d="M121 95L122 96L121 95M138 95L139 96L138 95z"/>
<path style="fill:#a4a4a4; stroke:none;" d="M85 96L86 97L85 96z"/>
<path style="fill:#4d4d4d; stroke:none;" d="M86 96L87 97L86 96z"/>
<path style="fill:#737373; stroke:none;" d="M140 96L141 97L140 96z"/>
<path style="fill:#a4a4a4; stroke:none;" d="M83 97L84 98L83 97z"/>
<path style="fill:#4d4d4d; stroke:none;" d="M84 97L85 98L84 97z"/>
<path style="fill:#737373; stroke:none;" d="M126 97L127 98L126 97z"/>
<path style="fill:#4d4d4d; stroke:none;" d="M142 97L143 98L142 97z"/>
<path style="fill:#a4a4a4; stroke:none;" d="M81 98L82 99L81 98M120 98L121 99L120 98M126 98L127 99L126 98z"/>
<path style="fill:#4d4d4d; stroke:none;" d="M144 98L145 99L144 98z"/>
<path style="fill:#a4a4a4; stroke:none;" d="M145 98L146 99L145 98M79 99L80 100L79 99z"/>
<path style="fill:#737373; stroke:none;" d="M120 99L121 100L120 99z"/>
<path style="fill:#4d4d4d; stroke:none;" d="M146 99L147 100L146 99z"/>
<path style="fill:#a4a4a4; stroke:none;" d="M147 99L148 100L147 99M77 100L78 101L77 100z"/>
<path style="fill:#4d4d4d; stroke:none;" d="M148 100L149 101L148 100z"/>
<path style="fill:#a4a4a4; stroke:none;" d="M149 100L150 101L149 100M75 101L76 102L75 101z"/>
<path style="fill:#737373; stroke:none;" d="M125 101L126 102L125 101z"/>
<path style="fill:#4d4d4d; stroke:none;" d="M150 101L151 102L150 101z"/>
<path style="fill:#a4a4a4; stroke:none;" d="M151 101L152 102L151 101z"/>
<path style="fill:#737373; stroke:none;" d="M73 102L74 103L73 102z"/>
<path style="fill:#a4a4a4; stroke:none;" d="M90 102L91 103L90 102M119 102L120 103L119 102M125 102L126 103L125 102z"/>
<path style="fill:#737373; stroke:none;" d="M136 102L137 103L136 102z"/>
<path style="fill:#a4a4a4; stroke:none;" d="M153 102L154 103L153 102z"/>
<path style="fill:#737373; stroke:none;" d="M71 103L72 104L71 103z"/>
<path style="fill:#4d4d4d; stroke:none;" d="M87 103L88 104L87 103z"/>
<path style="fill:#a4a4a4; stroke:none;" d="M88 103L89 104L88 103z"/>
<path style="fill:#737373; stroke:none;" d="M119 103L120 104L119 103M138 103L139 104L138 103z"/>
<path style="fill:#a4a4a4; stroke:none;" d="M155 103L156 104L155 103z"/>
<path style="fill:#737373; stroke:none;" d="M69 104L70 105L69 104z"/>
<path style="fill:#4d4d4d; stroke:none;" d="M85 104L86 105L85 104z"/>
<path style="fill:#a4a4a4; stroke:none;" d="M86 104L87 105L86 104M140 104L141 105L140 104z"/>
<path style="fill:#737373; stroke:none;" d="M157 104L158 105L157 104z"/>
<path style="fill:#4d4d4d; stroke:none;" d="M67 105L68 106L67 105M83 105L84 106L83 105z"/>
<path style="fill:#a4a4a4; stroke:none;" d="M84 105L85 106L84 105z"/>
<path style="fill:#4d4d4d; stroke:none;" d="M124 105L125 106L124 105z"/>
<path style="fill:#a4a4a4; stroke:none;" d="M142 105L143 106L142 105z"/>
<path style="fill:#737373; stroke:none;" d="M159 105L160 106L159 105z"/>
<path style="fill:#a4a4a4; stroke:none;" d="M64 106L65 107L64 106z"/>
<path style="fill:#4d4d4d; stroke:none;" d="M65 106L66 107L65 106z"/>
<path style="fill:#737373; stroke:none;" d="M81 106L82 107L81 106z"/>
<path style="fill:#a4a4a4; stroke:none;" d="M118 106L119 107L118 106M124 106L125 107L124 106M144 106L145 107L144 106z"/>
<path style="fill:#4d4d4d; stroke:none;" d="M145 106L146 107L145 106z"/>
<path style="fill:#737373; stroke:none;" d="M161 106L162 107L161 106z"/>
<path style="fill:#a4a4a4; stroke:none;" d="M62 107L63 108L62 107z"/>
<path style="fill:#4d4d4d; stroke:none;" d="M63 107L64 108L63 107z"/>
<path style="fill:#737373; stroke:none;" d="M79 107L80 108L79 107M118 107L119 108L118 107z"/>
<path style="fill:#a4a4a4; stroke:none;" d="M146 107L147 108L146 107z"/>
<path style="fill:#4d4d4d; stroke:none;" d="M147 107L148 108L147 107z"/>
<path style="fill:#737373; stroke:none;" d="M163 107L164 108L163 107z"/>
<path style="fill:#a4a4a4; stroke:none;" d="M60 108L61 109L60 108z"/>
<path style="fill:#4d4d4d; stroke:none;" d="M61 108L62 109L61 108z"/>
<path style="fill:#737373; stroke:none;" d="M77 108L78 109L77 108z"/>
<path style="fill:#4d4d4d; stroke:none;" d="M118 108L119 109L118 108M149 108L150 109L149 108M165 108L166 109L165 108z"/>
<path style="fill:#a4a4a4; stroke:none;" d="M58 109L59 110L58 109M75 109L76 110L75 109z"/>
<path style="fill:#4d4d4d; stroke:none;" d="M123 109L124 110L123 109z"/>
<path style="fill:#737373; stroke:none;" d="M151 109L152 110L151 109z"/>
<path style="fill:#4d4d4d; stroke:none;" d="M167 109L168 110L167 109z"/>
<path style="fill:#a4a4a4; stroke:none;" d="M168 109L169 110L168 109M56 110L57 111L56 110z"/>
<path style="fill:#4d4d4d; stroke:none;" d="M57 110L58 111L57 110M72 110L73 111L72 110z"/>
<path style="fill:#a4a4a4; stroke:none;" d="M73 110L74 111L73 110M117 110L118 111L117 110M123 110L124 111L123 110z"/>
<path style="fill:#737373; stroke:none;" d="M153 110L154 111L153 110z"/>
<path style="fill:#4d4d4d; stroke:none;" d="M169 110L170 111L169 110z"/>
<path style="fill:#a4a4a4; stroke:none;" d="M170 110L171 111L170 110M54 111L55 112L54 111z"/>
<path style="fill:#4d4d4d; stroke:none;" d="M70 111L71 112L70 111z"/>
<path style="fill:#a4a4a4; stroke:none;" d="M71 111L72 112L71 111z"/>
<path style="fill:#737373; stroke:none;" d="M117 111L118 112L117 111z"/>
<path style="fill:#a4a4a4; stroke:none;" d="M155 111L156 112L155 111z"/>
<path style="fill:#4d4d4d; stroke:none;" d="M171 111L172 112L171 111z"/>
<path style="fill:#a4a4a4; stroke:none;" d="M172 111L173 112L172 111M52 112L53 113L52 112z"/>
<path style="fill:#4d4d4d; stroke:none;" d="M68 112L69 113L68 112z"/>
<path style="fill:#a4a4a4; stroke:none;" d="M69 112L70 113L69 112z"/>
<path style="fill:#4d4d4d; stroke:none;" d="M117 112L118 113L117 112z"/>
<path style="fill:#a4a4a4; stroke:none;" d="M157 112L158 113L157 112M174 112L174 120L175 120L174 112z"/>
<path style="fill:#4d4d4d; stroke:none;" d="M52 113L52 120L53 120L52 113z"/>
<path style="fill:#737373; stroke:none;" d="M66 113L67 114L66 113z"/>
<path style="fill:#4d4d4d; stroke:none;" d="M122 113L123 114L122 113z"/>
<path style="fill:#a4a4a4; stroke:none;" d="M159 113L160 114L159 113z"/>
<path style="fill:#4d4d4d; stroke:none;" d="M160 113L161 114L160 113z"/>
<path style="fill:#737373; stroke:none;" d="M64 114L65 115L64 114z"/>
<path style="fill:#a4a4a4; stroke:none;" d="M116 114L117 115L116 114M122 114L123 115L122 114M161 114L162 115L161 114z"/>
<path style="fill:#4d4d4d; stroke:none;" d="M162 114L163 115L162 114z"/>
<path style="fill:#a4a4a4; stroke:none;" d="M62 115L63 116L62 115z"/>
<path style="fill:#737373; stroke:none;" d="M116 115L117 116L116 115z"/>
<path style="fill:#4d4d4d; stroke:none;" d="M164 115L165 116L164 115M60 116L61 117L60 116z"/>
<path style="fill:#a4a4a4; stroke:none;" d="M62 117L63 118L62 117z"/>
<path style="fill:#4d4d4d; stroke:none;" d="M121 117L122 118L121 117z"/>
<path style="fill:#737373; stroke:none;" d="M164 117L165 118L164 117M64 118L65 119L64 118z"/>
<path style="fill:#a4a4a4; stroke:none;" d="M115 118L116 119L115 118M121.333 118.667L121.667 119.333L121.333 118.667z"/>
<path style="fill:#737373; stroke:none;" d="M162 118L163 119L162 118M66 119L67 120L66 119M115 119L116 120L115 119z"/>
<path style="fill:#4d4d4d; stroke:none;" d="M160 119L161 120L160 119z"/>
<path style="fill:#a4a4a4; stroke:none;" d="M52 120L53 121L52 120z"/>
<path style="fill:#737373; stroke:none;" d="M68 120L69 121L68 120z"/>
<path style="fill:#4d4d4d; stroke:none;" d="M115 120L116 121L115 120z"/>
<path style="fill:#a4a4a4; stroke:none;" d="M157 120L158 121L157 120z"/>
<path style="fill:#4d4d4d; stroke:none;" d="M158 120L159 121L158 120M173 120L174 121L173 120z"/>
<path style="fill:#a4a4a4; stroke:none;" d="M54 121L55 122L54 121z"/>
<path style="fill:#737373; stroke:none;" d="M70 121L71 122L70 121z"/>
<path style="fill:#a4a4a4; stroke:none;" d="M71 121L72 122L71 121z"/>
<path style="fill:#4d4d4d; stroke:none;" d="M120 121L121 122L120 121z"/>
<path style="fill:#a4a4a4; stroke:none;" d="M155 121L156 122L155 121z"/>
<path style="fill:#4d4d4d; stroke:none;" d="M156 121L157 122L156 121M171 121L172 122L171 121z"/>
<path style="fill:#a4a4a4; stroke:none;" d="M172 121L173 122L172 121M56 122L57 123L56 122z"/>
<path style="fill:#4d4d4d; stroke:none;" d="M72 122L73 123L72 122z"/>
<path style="fill:#a4a4a4; stroke:none;" d="M73 122L74 123L73 122M114 122L115 123L114 122M120.333 122.667L120.667 123.333L120.333 122.667M153 122L154 123L153 122z"/>
<path style="fill:#4d4d4d; stroke:none;" d="M154 122L155 123L154 122M169 122L170 123L169 122z"/>
<path style="fill:#a4a4a4; stroke:none;" d="M170 122L171 123L170 122M58 123L59 124L58 123z"/>
<path style="fill:#4d4d4d; stroke:none;" d="M74 123L75 124L74 123z"/>
<path style="fill:#a4a4a4; stroke:none;" d="M75 123L76 124L75 123z"/>
<path style="fill:#737373; stroke:none;" d="M114 123L115 124L114 123z"/>
<path style="fill:#a4a4a4; stroke:none;" d="M151 123L152 124L151 123z"/>
<path style="fill:#4d4d4d; stroke:none;" d="M167 123L168 124L167 123z"/>
<path style="fill:#a4a4a4; stroke:none;" d="M168 123L169 124L168 123M60 124L61 125L60 124z"/>
<path style="fill:#4d4d4d; stroke:none;" d="M61 124L62 125L61 124z"/>
<path style="fill:#a4a4a4; stroke:none;" d="M77 124L78 125L77 124z"/>
<path style="fill:#4d4d4d; stroke:none;" d="M114 124L115 125L114 124z"/>
<path style="fill:#737373; stroke:none;" d="M149 124L150 125L149 124z"/>
<path style="fill:#4d4d4d; stroke:none;" d="M165 124L166 125L165 124z"/>
<path style="fill:#a4a4a4; stroke:none;" d="M166 124L167 125L166 124M62 125L63 126L62 125z"/>
<path style="fill:#4d4d4d; stroke:none;" d="M63 125L64 126L63 125z"/>
<path style="fill:#a4a4a4; stroke:none;" d="M79 125L80 126L79 125z"/>
<path style="fill:#4d4d4d; stroke:none;" d="M119 125L120 126L119 125z"/>
<path style="fill:#737373; stroke:none;" d="M147 125L148 126L147 125M163 125L164 126L163 125z"/>
<path style="fill:#a4a4a4; stroke:none;" d="M64 126L65 127L64 126z"/>
<path style="fill:#4d4d4d; stroke:none;" d="M65 126L66 127L65 126z"/>
<path style="fill:#737373; stroke:none;" d="M81 126L82 127L81 126z"/>
<path style="fill:#a4a4a4; stroke:none;" d="M113 126L114 127L113 126M119.333 126.667L119.667 127.333L119.333 126.667z"/>
<path style="fill:#4d4d4d; stroke:none;" d="M145 126L146 127L145 126z"/>
<path style="fill:#737373; stroke:none;" d="M161 126L162 127L161 126z"/>
<path style="fill:#a4a4a4; stroke:none;" d="M66 127L67 128L66 127z"/>
<path style="fill:#4d4d4d; stroke:none;" d="M67 127L68 128L67 127z"/>
<path style="fill:#737373; stroke:none;" d="M83 127L84 128L83 127M113 127L114 128L113 127z"/>
<path style="fill:#a4a4a4; stroke:none;" d="M142 127L143 128L142 127z"/>
<path style="fill:#4d4d4d; stroke:none;" d="M143 127L144 128L143 127z"/>
<path style="fill:#737373; stroke:none;" d="M159 127L160 128L159 127z"/>
<path style="fill:#a4a4a4; stroke:none;" d="M68 128L69 129L68 128z"/>
<path style="fill:#4d4d4d; stroke:none;" d="M69 128L70 129L69 128z"/>
<path style="fill:#737373; stroke:none;" d="M85 128L86 129L85 128z"/>
<path style="fill:#4d4d4d; stroke:none;" d="M113 128L114 129L113 128z"/>
<path style="fill:#a4a4a4; stroke:none;" d="M140 128L141 129L140 128z"/>
<path style="fill:#4d4d4d; stroke:none;" d="M141 128L142 129L141 128z"/>
<path style="fill:#737373; stroke:none;" d="M157 128L158 129L157 128M71 129L72 130L71 129z"/>
<path style="fill:#4d4d4d; stroke:none;" d="M87 129L88 130L87 129z"/>
<path style="fill:#a4a4a4; stroke:none;" d="M88 129L89 130L88 129z"/>
<path style="fill:#4d4d4d; stroke:none;" d="M118 129L119 130L118 129z"/>
<path style="fill:#a4a4a4; stroke:none;" d="M138 129L139 130L138 129z"/>
<path style="fill:#4d4d4d; stroke:none;" d="M139 129L140 130L139 129z"/>
<path style="fill:#737373; stroke:none;" d="M155 129L156 130L155 129z"/>
<path style="fill:#4d4d4d; stroke:none;" d="M73 130L74 131L73 130M89 130L90 131L89 130z"/>
<path style="fill:#a4a4a4; stroke:none;" d="M90 130L91 131L90 130M112 130L113 131L112 130M118.333 130.667L118.667 131.333L118.333 130.667M136 130L137 131L136 130z"/>
<path style="fill:#737373; stroke:none;" d="M153 130L154 131L153 130M75 131L76 132L75 131M91 131L91 139L92 139L91 131M112 131L113 132L112 131z"/>
<path style="fill:#a4a4a4; stroke:none;" d="M151 131L152 132L151 131z"/>
<path style="fill:#737373; stroke:none;" d="M77 132L78 133L77 132z"/>
<path style="fill:#4d4d4d; stroke:none;" d="M112 132L113 133L112 132z"/>
<path style="fill:#a4a4a4; stroke:none;" d="M149 132L150 133L149 132z"/>
<path style="fill:#737373; stroke:none;" d="M79 133L80 134L79 133z"/>
<path style="fill:#4d4d4d; stroke:none;" d="M117 133L118 134L117 133z"/>
<path style="fill:#a4a4a4; stroke:none;" d="M147 133L148 134L147 133z"/>
<path style="fill:#737373; stroke:none;" d="M81 134L82 135L81 134z"/>
<path style="fill:#a4a4a4; stroke:none;" d="M111 134L112 135L111 134z"/>
<path style="fill:#737373; stroke:none;" d="M117 134L118 135L117 134z"/>
<path style="fill:#a4a4a4; stroke:none;" d="M145 134L146 135L145 134M83 135L84 136L83 135z"/>
<path style="fill:#737373; stroke:none;" d="M111 135L112 136L111 135z"/>
<path style="fill:#a4a4a4; stroke:none;" d="M117 135L118 136L117 135z"/>
<path style="fill:#4d4d4d; stroke:none;" d="M142 135L143 136L142 135z"/>
<path style="fill:#a4a4a4; stroke:none;" d="M143 135L144 136L143 135M85 136L86 137L85 136z"/>
<path style="fill:#4d4d4d; stroke:none;" d="M111 136L112 137L111 136M140 136L141 137L140 136z"/>
<path style="fill:#a4a4a4; stroke:none;" d="M141 136L142 137L141 136M87 137L88 138L87 137z"/>
<path style="fill:#4d4d4d; stroke:none;" d="M116 137L117 138L116 137M138 137L139 138L138 137z"/>
<path style="fill:#a4a4a4; stroke:none;" d="M139 137L140 138L139 137M89 138L90 139L89 138M110 138L111 139L110 138z"/>
<path style="fill:#737373; stroke:none;" d="M116 138L117 139L116 138z"/>
<path style="fill:#4d4d4d; stroke:none;" d="M136 138L137 139L136 138z"/>
<path style="fill:#a4a4a4; stroke:none;" d="M137 138L138 139L137 138M91 139L92 140L91 139z"/>
<path style="fill:#737373; stroke:none;" d="M110 139L111 140L110 139z"/>
<path style="fill:#a4a4a4; stroke:none;" d="M116 139L117 140L116 139M135 139L136 140L135 139z"/>
<path style="fill:#4d4d4d; stroke:none;" d="M110 140L111 141L110 140M115 141L116 142L115 141z"/>
<path style="fill:#a4a4a4; stroke:none;" d="M109 142L110 143L109 142z"/>
<path style="fill:#737373; stroke:none;" d="M115 142L116 143L115 142M109 143L110 144L109 143z"/>
<path style="fill:#a4a4a4; stroke:none;" d="M115 143L116 144L115 143z"/>
<path style="fill:#4d4d4d; stroke:none;" d="M109 144L110 145L109 144M114 145L115 146L114 145z"/>
<path style="fill:#a4a4a4; stroke:none;" d="M108 146L109 147L108 146z"/>
<path style="fill:#737373; stroke:none;" d="M114 146L115 147L114 146M108 147L109 148L108 147z"/>
<path style="fill:#a4a4a4; stroke:none;" d="M114 147L115 148L114 147z"/>
<path style="fill:#4d4d4d; stroke:none;" d="M108 148L109 149L108 148M113 149L114 150L113 149z"/>
<path style="fill:#a4a4a4; stroke:none;" d="M107 150L113 152L113 151L107 150z"/>
<path style="fill:#737373; stroke:none;" d="M113 150L114 151L113 150z"/>
<path style="fill:#a4a4a4; stroke:none;" d="M16.3333 185.667L16.6667 186.333L16.3333 185.667M208.333 185.667L208.667 186.333L208.333 185.667M17 188L18 189L17 188M207 188L208 189L207 188z"/>
<path style="fill:#737373; stroke:none;" d="M18 189L19 190L18 189M206 189L207 190L206 189z"/>
<path style="fill:#a4a4a4; stroke:none;" d="M19 190L20 191L19 190z"/>
<path style="fill:#4d4d4d; stroke:none;" d="M20 190L21 191L20 190M204 190L205 191L204 190z"/>
<path style="fill:#a4a4a4; stroke:none;" d="M205 190L206 191L205 190M22 191L22 192L203 192L185 191L149 191L22 191z"/>
</svg>
