<?xml version="1.0" standalone="no"?>
<!DOCTYPE svg PUBLIC "-//W3C//DTD SVG 20010904//EN"
 "http://www.w3.org/TR/2001/REC-SVG-20010904/DTD/svg10.dtd">
<svg version="1.0" xmlns="http://www.w3.org/2000/svg"
 width="225.000000pt" height="225.000000pt" viewBox="0 0 225.000000 225.000000"
 preserveAspectRatio="xMidYMid meet">

<g transform="translate(0.000000,225.000000) scale(0.100000,-0.100000)"
fill="#000000" stroke="none">
<path d="M495 1941 c-69 -17 -134 -70 -171 -141 -18 -33 -19 -70 -19 -675 0
-637 0 -640 22 -680 25 -47 74 -95 123 -121 33 -18 70 -19 675 -19 637 0 640
0 680 22 47 25 95 74 121 123 18 33 19 70 19 675 0 605 -1 642 -19 675 -26 49
-74 98 -121 123 -40 22 -45 22 -660 24 -341 1 -633 -2 -650 -6z m530 -206
c193 -41 349 -184 384 -353 15 -72 15 -72 -21 -72 -52 0 -154 -28 -210 -56
-70 -36 -153 -121 -185 -191 -20 -43 -28 -79 -31 -141 l-5 -83 -98 7 -98 7
-91 -57 c-101 -63 -99 -64 -71 49 l17 70 -71 70 c-152 149 -182 316 -90 502
43 86 113 155 208 202 119 58 235 73 362 46z m455 -476 c191 -31 330 -178 330
-349 0 -84 -30 -155 -95 -228 -45 -49 -55 -67 -55 -96 l0 -37 -32 17 c-24 13
-44 15 -87 9 -31 -5 -101 -8 -156 -9 -92 -1 -105 2 -160 29 -32 17 -82 53
-110 80 -71 69 -99 131 -103 226 -4 67 0 85 23 138 48 107 154 189 279 216 77
17 87 17 166 4z"/>
<path d="M697 1448 c-42 -33 -37 -106 9 -127 35 -16 47 -14 78 10 19 15 26 30
26 54 0 56 -70 95 -113 63z"/>
<path d="M1066 1439 c-22 -17 -26 -28 -24 -57 6 -74 100 -96 133 -31 40 75
-42 141 -109 88z"/>
<path d="M1177 1062 c-52 -57 25 -134 88 -88 21 15 25 67 5 90 -17 22 -73 20
-93 -2z"/>
<path d="M1476 1058 c-9 -12 -16 -29 -16 -38 0 -9 7 -26 16 -38 23 -34 83 -27
104 11 13 24 13 30 0 55 -21 37 -81 44 -104 10z"/>
</g>
</svg>
