<?xml version="1.0" encoding="UTF-8"?>
<!DOCTYPE svg PUBLIC "-//W3C//DTD SVG 1.1//EN" "http://www.w3.org/Graphics/SVG/1.1/DTD/svg11.dtd">
<svg xmlns="http://www.w3.org/2000/svg" version="1.1" width="225px" height="225px" style="shape-rendering:geometricPrecision; text-rendering:geometricPrecision; image-rendering:optimizeQuality; fill-rule:evenodd; clip-rule:evenodd" xmlns:xlink="http://www.w3.org/1999/xlink">
<g><path style="opacity:1" fill="#f5f5f5" d="M -0.5,-0.5 C 44.8333,-0.5 90.1667,-0.5 135.5,-0.5C 135.833,55.1707 135.5,110.837 134.5,166.5C 114.428,156.285 95.0949,157.451 76.5,170C 63.1038,182.441 61.9372,195.941 73,210.5C 81.3226,218.542 91.1559,223.209 102.5,224.5C 68.1667,224.5 33.8333,224.5 -0.5,224.5C -0.5,149.5 -0.5,74.5 -0.5,-0.5 Z"/></g>
<g><path style="opacity:1" fill="#050505" d="M 135.5,-0.5 C 138.833,-0.5 142.167,-0.5 145.5,-0.5C 186.919,3.74314 211.752,26.4098 220,67.5C 222.301,89.3021 216.967,108.969 204,126.5C 202.281,128.557 200.281,130.224 198,131.5C 193.87,130.1 189.87,128.434 186,126.5C 186.528,110.137 182.862,94.8035 175,80.5C 169.714,72.1116 162.214,67.1116 152.5,65.5C 152.44,64.9569 152.107,64.6236 151.5,64.5C 150.5,107.161 150.167,149.828 150.5,192.5C 149.038,205.807 142.038,214.973 129.5,220C 124.126,221.84 118.793,223.34 113.5,224.5C 109.833,224.5 106.167,224.5 102.5,224.5C 91.1559,223.209 81.3226,218.542 73,210.5C 61.9372,195.941 63.1038,182.441 76.5,170C 95.0949,157.451 114.428,156.285 134.5,166.5C 135.5,110.837 135.833,55.1707 135.5,-0.5 Z"/></g>
<g><path style="opacity:1" fill="#f2f2f2" d="M 150.5,15.5 C 177.54,19.3609 195.374,34.3609 204,60.5C 205.972,71.1583 205.972,81.8249 204,92.5C 203.181,96.7939 201.681,100.794 199.5,104.5C 196.809,90.586 191.309,77.9193 183,66.5C 174.424,56.929 163.757,51.2624 151,49.5C 150.5,38.1716 150.333,26.8382 150.5,15.5 Z"/></g>
<g><path style="opacity:1" fill="#040404" d="M 34.5,45.5 C 44.5338,44.6332 53.7005,46.9665 62,52.5C 78.856,42.3099 94.856,43.6432 110,56.5C 122.407,71.5201 123.74,87.5201 114,104.5C 97.0289,122.472 79.6955,140.138 62,157.5C 45.3333,140.833 28.6667,124.167 12,107.5C 1.91509,93.1437 0.915088,78.1437 9,62.5C 15.505,53.676 24.005,48.0093 34.5,45.5 Z"/></g>
<g><path style="opacity:1" fill="#f3f3f3" d="M 35.5,60.5 C 46.4735,59.7362 55.3069,63.7362 62,72.5C 72.8301,58.7607 85.3301,56.9274 99.5,67C 106.4,75.9022 107.233,85.4022 102,95.5C 89.0294,109.471 75.6961,123.138 62,136.5C 47.2704,122.439 33.2704,107.773 20,92.5C 15.3184,76.866 20.4851,66.1993 35.5,60.5 Z"/></g>
<g><path style="opacity:1" fill="#bebebe" d="M 152.5,65.5 C 151.833,107.833 151.167,150.167 150.5,192.5C 150.167,149.828 150.5,107.161 151.5,64.5C 152.107,64.6236 152.44,64.9569 152.5,65.5 Z"/></g>
<g><path style="opacity:1" fill="#f5f5f5" d="M 145.5,-0.5 C 171.833,-0.5 198.167,-0.5 224.5,-0.5C 224.5,74.5 224.5,149.5 224.5,224.5C 187.5,224.5 150.5,224.5 113.5,224.5C 118.793,223.34 124.126,221.84 129.5,220C 142.038,214.973 149.038,205.807 150.5,192.5C 151.167,150.167 151.833,107.833 152.5,65.5C 162.214,67.1116 169.714,72.1116 175,80.5C 182.862,94.8035 186.528,110.137 186,126.5C 189.87,128.434 193.87,130.1 198,131.5C 200.281,130.224 202.281,128.557 204,126.5C 216.967,108.969 222.301,89.3021 220,67.5C 211.752,26.4098 186.919,3.74314 145.5,-0.5 Z"/></g>
<g><path style="opacity:1" fill="#f2f2f2" d="M 99.5,174.5 C 109.81,173.17 119.477,175.003 128.5,180C 137.833,188 137.833,196 128.5,204C 115.651,210.847 102.651,211.18 89.5,205C 78.85,198.123 77.85,190.123 86.5,181C 90.6467,178.26 94.98,176.093 99.5,174.5 Z"/></g>
</svg>
