<?xml version="1.0" standalone="no"?>
<!DOCTYPE svg PUBLIC "-//W3C//DTD SVG 20010904//EN"
 "http://www.w3.org/TR/2001/REC-SVG-20010904/DTD/svg10.dtd">
<svg version="1.0" xmlns="http://www.w3.org/2000/svg"
 width="225.000000pt" height="225.000000pt" viewBox="0 0 225.000000 225.000000"
 preserveAspectRatio="xMidYMid meet">

<g transform="translate(0.000000,225.000000) scale(0.100000,-0.100000)"
fill="#000000" stroke="none">
<path d="M989 1998 c-78 -28 -153 -82 -203 -147 -246 -324 -67 -849 304 -888
203 -21 403 143 464 383 20 79 21 232 1 308 -38 146 -137 270 -261 328 -92 43
-210 49 -305 16z"/>
<path d="M615 916 c-62 -27 -161 -167 -261 -371 -79 -161 -95 -215 -74 -253 9
-15 31 -35 50 -44 32 -17 92 -18 798 -18 815 0 815 0 841 48 23 44 8 95 -85
291 -73 152 -160 289 -208 326 -76 58 -143 46 -236 -39 -108 -99 -138 -111
-300 -111 -161 0 -193 11 -290 100 -34 31 -77 63 -96 71 -41 17 -99 17 -139 0z"/>
</g>
</svg>
